<mxfile host="app.diagrams.net" modified="2023-05-31T21:24:07.280Z" agent="Mozilla/5.0 (Windows NT 10.0; Win64; x64) AppleWebKit/537.36 (KHTML, like Gecko) Chrome/112.0.0.0 Safari/537.36 OPR/98.0.0.0" etag="mqouonkkA7toM4QNruHW" version="21.3.6" type="github">
  <diagram name="Page-1" id="Y9jQ7BKq4RQUg3Jp9FmE">
    <mxGraphModel dx="1075" dy="485" grid="1" gridSize="10" guides="1" tooltips="1" connect="1" arrows="1" fold="1" page="1" pageScale="1" pageWidth="850" pageHeight="1100" math="0" shadow="0">
      <root>
        <mxCell id="0" />
        <mxCell id="1" parent="0" />
        <mxCell id="Zc2QEfRrwF_W8643Sfey-2" value="" style="ellipse;whiteSpace=wrap;html=1;aspect=fixed;" parent="1" vertex="1">
          <mxGeometry x="190" y="240" width="80" height="80" as="geometry" />
        </mxCell>
        <mxCell id="Zc2QEfRrwF_W8643Sfey-6" value="" style="endArrow=none;html=1;rounded=0;entryX=0.5;entryY=1;entryDx=0;entryDy=0;" parent="1" target="Zc2QEfRrwF_W8643Sfey-2" edge="1">
          <mxGeometry width="50" height="50" relative="1" as="geometry">
            <mxPoint x="230" y="410" as="sourcePoint" />
            <mxPoint x="280" y="320" as="targetPoint" />
          </mxGeometry>
        </mxCell>
        <mxCell id="Zc2QEfRrwF_W8643Sfey-7" value="" style="ellipse;whiteSpace=wrap;html=1;aspect=fixed;" parent="1" vertex="1">
          <mxGeometry x="190" y="410" width="80" height="80" as="geometry" />
        </mxCell>
        <mxCell id="Zc2QEfRrwF_W8643Sfey-8" value="" style="endArrow=none;html=1;rounded=0;entryX=0.5;entryY=1;entryDx=0;entryDy=0;" parent="1" target="Zc2QEfRrwF_W8643Sfey-7" edge="1">
          <mxGeometry width="50" height="50" relative="1" as="geometry">
            <mxPoint x="230" y="580" as="sourcePoint" />
            <mxPoint x="220" y="520" as="targetPoint" />
          </mxGeometry>
        </mxCell>
        <mxCell id="Zc2QEfRrwF_W8643Sfey-9" value="" style="ellipse;whiteSpace=wrap;html=1;aspect=fixed;" parent="1" vertex="1">
          <mxGeometry x="190" y="580" width="80" height="80" as="geometry" />
        </mxCell>
        <mxCell id="Zc2QEfRrwF_W8643Sfey-11" value="" style="endArrow=none;html=1;rounded=0;entryX=0.5;entryY=1;entryDx=0;entryDy=0;exitX=0.5;exitY=0;exitDx=0;exitDy=0;" parent="1" target="Zc2QEfRrwF_W8643Sfey-9" edge="1">
          <mxGeometry width="50" height="50" relative="1" as="geometry">
            <mxPoint x="230" y="730" as="sourcePoint" />
            <mxPoint x="220" y="720" as="targetPoint" />
          </mxGeometry>
        </mxCell>
        <mxCell id="Zc2QEfRrwF_W8643Sfey-13" value="" style="endArrow=none;html=1;rounded=0;entryX=0.5;entryY=1;entryDx=0;entryDy=0;" parent="1" edge="1">
          <mxGeometry width="50" height="50" relative="1" as="geometry">
            <mxPoint x="230" y="920" as="sourcePoint" />
            <mxPoint x="230" y="810" as="targetPoint" />
          </mxGeometry>
        </mxCell>
        <mxCell id="Zc2QEfRrwF_W8643Sfey-15" value="" style="ellipse;whiteSpace=wrap;html=1;aspect=fixed;" parent="1" vertex="1">
          <mxGeometry x="190" y="920" width="80" height="80" as="geometry" />
        </mxCell>
        <mxCell id="Zc2QEfRrwF_W8643Sfey-16" value="" style="ellipse;whiteSpace=wrap;html=1;" parent="1" vertex="1">
          <mxGeometry x="170" y="730" width="120" height="80" as="geometry" />
        </mxCell>
        <mxCell id="Zc2QEfRrwF_W8643Sfey-17" value="" style="ellipse;whiteSpace=wrap;html=1;aspect=fixed;" parent="1" vertex="1">
          <mxGeometry x="190" y="1050" width="80" height="80" as="geometry" />
        </mxCell>
        <mxCell id="Zc2QEfRrwF_W8643Sfey-18" value="" style="endArrow=none;html=1;rounded=0;exitX=0.5;exitY=0;exitDx=0;exitDy=0;entryX=0.5;entryY=1;entryDx=0;entryDy=0;" parent="1" source="Zc2QEfRrwF_W8643Sfey-17" target="Zc2QEfRrwF_W8643Sfey-15" edge="1">
          <mxGeometry width="50" height="50" relative="1" as="geometry">
            <mxPoint x="170" y="970" as="sourcePoint" />
            <mxPoint x="220" y="920" as="targetPoint" />
          </mxGeometry>
        </mxCell>
        <mxCell id="Zc2QEfRrwF_W8643Sfey-19" value="" style="curved=1;endArrow=classic;html=1;rounded=0;exitX=0;exitY=0.5;exitDx=0;exitDy=0;" parent="1" source="Zc2QEfRrwF_W8643Sfey-17" target="Zc2QEfRrwF_W8643Sfey-16" edge="1">
          <mxGeometry width="50" height="50" relative="1" as="geometry">
            <mxPoint x="170" y="1070" as="sourcePoint" />
            <mxPoint x="220" y="1020" as="targetPoint" />
            <Array as="points">
              <mxPoint x="60" y="1010" />
              <mxPoint x="80" y="910" />
            </Array>
          </mxGeometry>
        </mxCell>
        <mxCell id="Zc2QEfRrwF_W8643Sfey-22" value="" style="endArrow=none;html=1;rounded=0;exitX=0.5;exitY=1;exitDx=0;exitDy=0;" parent="1" source="Zc2QEfRrwF_W8643Sfey-17" target="Zc2QEfRrwF_W8643Sfey-23" edge="1">
          <mxGeometry width="50" height="50" relative="1" as="geometry">
            <mxPoint x="230" y="1120" as="sourcePoint" />
            <mxPoint x="230" y="1200" as="targetPoint" />
          </mxGeometry>
        </mxCell>
        <mxCell id="Zc2QEfRrwF_W8643Sfey-23" value="" style="ellipse;whiteSpace=wrap;html=1;aspect=fixed;" parent="1" vertex="1">
          <mxGeometry x="190" y="1210" width="80" height="80" as="geometry" />
        </mxCell>
        <mxCell id="Zc2QEfRrwF_W8643Sfey-24" value="" style="curved=1;endArrow=classic;html=1;rounded=0;entryX=1;entryY=0.5;entryDx=0;entryDy=0;exitX=1;exitY=0.5;exitDx=0;exitDy=0;" parent="1" source="Zc2QEfRrwF_W8643Sfey-9" target="Zc2QEfRrwF_W8643Sfey-23" edge="1">
          <mxGeometry width="50" height="50" relative="1" as="geometry">
            <mxPoint x="230" y="1320" as="sourcePoint" />
            <mxPoint x="280" y="1270" as="targetPoint" />
            <Array as="points">
              <mxPoint x="420" y="1070" />
              <mxPoint x="360" y="790" />
            </Array>
          </mxGeometry>
        </mxCell>
        <mxCell id="Zc2QEfRrwF_W8643Sfey-25" value="" style="endArrow=none;html=1;rounded=0;entryX=0;entryY=1;entryDx=0;entryDy=0;" parent="1" target="Zc2QEfRrwF_W8643Sfey-23" edge="1">
          <mxGeometry width="50" height="50" relative="1" as="geometry">
            <mxPoint x="150" y="1350" as="sourcePoint" />
            <mxPoint x="280" y="1290" as="targetPoint" />
          </mxGeometry>
        </mxCell>
        <mxCell id="Zc2QEfRrwF_W8643Sfey-26" value="" style="endArrow=none;html=1;rounded=0;entryX=0.5;entryY=1;entryDx=0;entryDy=0;" parent="1" target="Zc2QEfRrwF_W8643Sfey-23" edge="1">
          <mxGeometry width="50" height="50" relative="1" as="geometry">
            <mxPoint x="270" y="1350" as="sourcePoint" />
            <mxPoint x="280" y="1290" as="targetPoint" />
          </mxGeometry>
        </mxCell>
        <mxCell id="Zc2QEfRrwF_W8643Sfey-27" value="" style="ellipse;whiteSpace=wrap;html=1;aspect=fixed;" parent="1" vertex="1">
          <mxGeometry x="100" y="1350" width="80" height="80" as="geometry" />
        </mxCell>
        <mxCell id="Zc2QEfRrwF_W8643Sfey-28" value="" style="ellipse;whiteSpace=wrap;html=1;aspect=fixed;" parent="1" vertex="1">
          <mxGeometry x="250" y="1340" width="80" height="80" as="geometry" />
        </mxCell>
        <mxCell id="Zc2QEfRrwF_W8643Sfey-29" value="" style="endArrow=none;html=1;rounded=0;entryX=1;entryY=1;entryDx=0;entryDy=0;" parent="1" target="Zc2QEfRrwF_W8643Sfey-28" edge="1">
          <mxGeometry width="50" height="50" relative="1" as="geometry">
            <mxPoint x="360" y="1470" as="sourcePoint" />
            <mxPoint x="280" y="1490" as="targetPoint" />
          </mxGeometry>
        </mxCell>
        <mxCell id="Zc2QEfRrwF_W8643Sfey-30" value="" style="ellipse;whiteSpace=wrap;html=1;" parent="1" vertex="1">
          <mxGeometry x="305" y="1470" width="120" height="80" as="geometry" />
        </mxCell>
        <mxCell id="Zc2QEfRrwF_W8643Sfey-31" value="" style="ellipse;whiteSpace=wrap;html=1;aspect=fixed;" parent="1" vertex="1">
          <mxGeometry x="345" y="1580" width="80" height="80" as="geometry" />
        </mxCell>
        <mxCell id="Zc2QEfRrwF_W8643Sfey-32" value="" style="endArrow=none;html=1;rounded=0;entryX=0.5;entryY=1;entryDx=0;entryDy=0;exitX=0.413;exitY=0;exitDx=0;exitDy=0;exitPerimeter=0;" parent="1" source="Zc2QEfRrwF_W8643Sfey-31" target="Zc2QEfRrwF_W8643Sfey-30" edge="1">
          <mxGeometry width="50" height="50" relative="1" as="geometry">
            <mxPoint x="230" y="1540" as="sourcePoint" />
            <mxPoint x="280" y="1490" as="targetPoint" />
          </mxGeometry>
        </mxCell>
        <mxCell id="Zc2QEfRrwF_W8643Sfey-33" value="" style="curved=1;endArrow=classic;html=1;rounded=0;exitX=0;exitY=0.5;exitDx=0;exitDy=0;entryX=0;entryY=0.5;entryDx=0;entryDy=0;" parent="1" source="Zc2QEfRrwF_W8643Sfey-31" target="Zc2QEfRrwF_W8643Sfey-30" edge="1">
          <mxGeometry width="50" height="50" relative="1" as="geometry">
            <mxPoint x="230" y="1540" as="sourcePoint" />
            <mxPoint x="280" y="1490" as="targetPoint" />
            <Array as="points">
              <mxPoint x="280" y="1540" />
              <mxPoint x="230" y="1490" />
            </Array>
          </mxGeometry>
        </mxCell>
        <mxCell id="Zc2QEfRrwF_W8643Sfey-34" value="" style="endArrow=none;html=1;rounded=0;" parent="1" target="Zc2QEfRrwF_W8643Sfey-31" edge="1">
          <mxGeometry width="50" height="50" relative="1" as="geometry">
            <mxPoint x="230" y="1740" as="sourcePoint" />
            <mxPoint x="280" y="1690" as="targetPoint" />
          </mxGeometry>
        </mxCell>
        <mxCell id="Zc2QEfRrwF_W8643Sfey-35" value="" style="endArrow=none;html=1;rounded=0;entryX=0.5;entryY=1;entryDx=0;entryDy=0;" parent="1" target="Zc2QEfRrwF_W8643Sfey-27" edge="1">
          <mxGeometry width="50" height="50" relative="1" as="geometry">
            <mxPoint x="170" y="1710" as="sourcePoint" />
            <mxPoint x="280" y="1590" as="targetPoint" />
          </mxGeometry>
        </mxCell>
        <mxCell id="Zc2QEfRrwF_W8643Sfey-36" value="" style="ellipse;whiteSpace=wrap;html=1;aspect=fixed;" parent="1" vertex="1">
          <mxGeometry x="140" y="1700" width="90" height="90" as="geometry" />
        </mxCell>
        <mxCell id="Zc2QEfRrwF_W8643Sfey-38" value="FOR" style="text;strokeColor=none;align=center;fillColor=none;html=1;verticalAlign=middle;whiteSpace=wrap;rounded=0;" parent="1" vertex="1">
          <mxGeometry x="330" y="1495" width="60" height="30" as="geometry" />
        </mxCell>
        <mxCell id="Zc2QEfRrwF_W8643Sfey-39" value="FOR" style="text;strokeColor=none;align=center;fillColor=none;html=1;verticalAlign=middle;whiteSpace=wrap;rounded=0;" parent="1" vertex="1">
          <mxGeometry x="200" y="755" width="60" height="30" as="geometry" />
        </mxCell>
        <mxCell id="Zc2QEfRrwF_W8643Sfey-40" value="IF" style="text;strokeColor=none;align=center;fillColor=none;html=1;verticalAlign=middle;whiteSpace=wrap;rounded=0;" parent="1" vertex="1">
          <mxGeometry x="200" y="265" width="60" height="30" as="geometry" />
        </mxCell>
        <mxCell id="Zc2QEfRrwF_W8643Sfey-41" value="IF" style="text;strokeColor=none;align=center;fillColor=none;html=1;verticalAlign=middle;whiteSpace=wrap;rounded=0;" parent="1" vertex="1">
          <mxGeometry x="200" y="435" width="60" height="30" as="geometry" />
        </mxCell>
        <mxCell id="Zc2QEfRrwF_W8643Sfey-42" value="IF" style="text;strokeColor=none;align=center;fillColor=none;html=1;verticalAlign=middle;whiteSpace=wrap;rounded=0;" parent="1" vertex="1">
          <mxGeometry x="200" y="605" width="60" height="30" as="geometry" />
        </mxCell>
        <mxCell id="Zc2QEfRrwF_W8643Sfey-43" value="IF" style="text;strokeColor=none;align=center;fillColor=none;html=1;verticalAlign=middle;whiteSpace=wrap;rounded=0;" parent="1" vertex="1">
          <mxGeometry x="200" y="945" width="60" height="30" as="geometry" />
        </mxCell>
        <mxCell id="Zc2QEfRrwF_W8643Sfey-44" value="IF" style="text;strokeColor=none;align=center;fillColor=none;html=1;verticalAlign=middle;whiteSpace=wrap;rounded=0;" parent="1" vertex="1">
          <mxGeometry x="200" y="1075" width="60" height="30" as="geometry" />
        </mxCell>
        <mxCell id="Zc2QEfRrwF_W8643Sfey-45" value="IF" style="text;strokeColor=none;align=center;fillColor=none;html=1;verticalAlign=middle;whiteSpace=wrap;rounded=0;" parent="1" vertex="1">
          <mxGeometry x="200" y="1235" width="60" height="30" as="geometry" />
        </mxCell>
        <mxCell id="Zc2QEfRrwF_W8643Sfey-46" value="ELSE IF" style="text;strokeColor=none;align=center;fillColor=none;html=1;verticalAlign=middle;whiteSpace=wrap;rounded=0;" parent="1" vertex="1">
          <mxGeometry x="260" y="1365" width="60" height="30" as="geometry" />
        </mxCell>
        <mxCell id="Zc2QEfRrwF_W8643Sfey-47" value="IF" style="text;strokeColor=none;align=center;fillColor=none;html=1;verticalAlign=middle;whiteSpace=wrap;rounded=0;" parent="1" vertex="1">
          <mxGeometry x="355" y="1605" width="60" height="30" as="geometry" />
        </mxCell>
        <mxCell id="Zc2QEfRrwF_W8643Sfey-48" value="" style="endArrow=none;html=1;rounded=0;entryX=0;entryY=1;entryDx=0;entryDy=0;exitX=0.614;exitY=-0.015;exitDx=0;exitDy=0;exitPerimeter=0;" parent="1" source="Zc2QEfRrwF_W8643Sfey-36" target="Zc2QEfRrwF_W8643Sfey-28" edge="1">
          <mxGeometry width="50" height="50" relative="1" as="geometry">
            <mxPoint x="800" y="1640" as="sourcePoint" />
            <mxPoint x="850" y="1590" as="targetPoint" />
          </mxGeometry>
        </mxCell>
        <mxCell id="Zc2QEfRrwF_W8643Sfey-49" value="END" style="text;strokeColor=none;align=center;fillColor=none;html=1;verticalAlign=middle;whiteSpace=wrap;rounded=0;" parent="1" vertex="1">
          <mxGeometry x="155" y="1730" width="60" height="30" as="geometry" />
        </mxCell>
        <mxCell id="Zc2QEfRrwF_W8643Sfey-50" value="IF" style="text;strokeColor=none;align=center;fillColor=none;html=1;verticalAlign=middle;whiteSpace=wrap;rounded=0;" parent="1" vertex="1">
          <mxGeometry x="110" y="1375" width="60" height="30" as="geometry" />
        </mxCell>
      </root>
    </mxGraphModel>
  </diagram>
</mxfile>
